<svg width="30" height="30" viewBox="0 0 30 30" fill="none" xmlns="http://www.w3.org/2000/svg">
<path d="M8.95556 22.4953L10.3949 21.2705L10.4043 21.2625C10.7047 21.0063 10.8567 20.8777 11.0258 20.7862C11.1775 20.7038 11.3374 20.6442 11.5056 20.6074C11.6935 20.5662 11.889 20.5662 12.2819 20.5662H20.4806C21.5365 20.5662 22.0654 20.5662 22.4687 20.3472C22.8241 20.1545 23.113 19.8471 23.2941 19.469C23.5 19.039 23.5 18.4764 23.5 17.3551V9.71212C23.5 8.58883 23.5 8.02618 23.2941 7.59716C23.1128 7.21892 22.8235 6.91151 22.4677 6.71903C22.0644 6.5 21.5356 6.5 20.4778 6.5H9.52222C8.46444 6.5 7.93556 6.5 7.53133 6.71903C7.17593 6.91168 6.88698 7.21908 6.70589 7.59716C6.5 8.02719 6.5 8.58983 6.5 9.71513V21.2404C6.5 22.3114 6.5 22.8469 6.70589 23.1212C6.79442 23.2395 6.9069 23.3349 7.03494 23.4005C7.16298 23.4661 7.30328 23.5001 7.44539 23.5C7.77594 23.5 8.16883 23.1644 8.95556 22.4953Z" stroke="#F2C7D2" stroke-width="2" stroke-linecap="round" stroke-linejoin="round"/>
</svg>
