<svg width="30" height="30" viewBox="0 0 30 30" fill="none" xmlns="http://www.w3.org/2000/svg">
<path d="M15 10.7812C15 10.7812 15 10.3125 14.2822 9.375C13.4511 8.2875 12.2233 7.5 10.75 7.5C8.39833 7.5 6.5 9.38437 6.5 11.7188C6.5 12.5906 6.76444 13.3969 7.21778 14.0625C7.98278 15.1969 15 22.5 15 22.5M15 10.7812C15 10.7812 15 10.3125 15.7178 9.375C16.5489 8.2875 17.7767 7.5 19.25 7.5C21.6017 7.5 23.5 9.38437 23.5 11.7188C23.5 12.5906 23.2356 13.3969 22.7822 14.0625C22.0172 15.1969 15 22.5 15 22.5" stroke="#F2C7D2" stroke-width="2" stroke-linecap="round" stroke-linejoin="round"/>
</svg>
