<svg width="30" height="30" viewBox="0 0 30 30" fill="none" xmlns="http://www.w3.org/2000/svg">
<g opacity="0.5">
<path d="M27.143 13.4456L22.6334 13.065C18.112 12.6835 13.8424 14.4846 11.1538 17.9076L7.88128 22.074L8.45086 22.3175C15.598 25.3739 23.4714 22.3963 26.2676 15.5797L27.143 13.4456Z" fill="#EEA5B7" fill-opacity="0.58"/>
<path d="M18.2481 15.0507C13.1819 15.8854 7.88053 22.0735 7.88053 22.0735C7.88053 22.0735 16.8743 22.8937 20.3007 18.9089C20.4112 18.7804 20.527 18.6337 20.6462 18.4732C21.8769 16.8168 20.2666 14.7182 18.2481 15.0507Z" fill="#F185A0" fill-opacity="0.72"/>
<path d="M19.9666 26.3809C13.5239 26.0843 7.93759 22.0818 7.93759 22.0818C7.93759 22.0818 10.589 23.0107 12.9568 23.2438C16.7903 23.6213 20.1203 23.3166 23.7968 22.8738C27.5112 22.4264 27.4732 26.1925 23.7354 26.3868C22.6693 26.4423 21.4227 26.448 19.9666 26.3809Z" fill="#EB96AB"/>
<path d="M15.0296 27.5776C15.1023 27.6122 15.1855 27.6159 15.2612 27.5874C15.3369 27.5589 15.3988 27.5005 15.4331 27.4256C15.4674 27.3508 15.4712 27.2658 15.4433 27.19C15.4154 27.1142 15.3582 27.0538 15.2844 27.0215C15.2844 27.0215 15.2844 27.0215 15.2844 27.0215C14.9675 26.8823 14.6679 26.7474 14.355 26.6019C8.75732 24.2267 3.95939 19.6185 2.49101 13.5212C2.39444 13.1889 2.30588 12.8648 2.21931 12.5282C2.29603 12.8673 2.37481 13.1942 2.46169 13.5295C3.72968 19.6617 8.50194 24.5615 14.1016 27.1249C14.4141 27.2815 14.7131 27.4274 15.0296 27.5776Z" fill="#D7778F"/>
<path d="M18.3012 0.250861C17.9911 -0.0816489 18.3177 1.19911 18.9026 3.08692C20.8426 9.34927 18.6175 15.9177 13.111 19.075L7.88073 22.074L6.83314 19.0296C4.08647 11.0475 9.07098 3.50743 16.9551 1.043C17.9489 0.732371 18.4927 0.456203 18.3012 0.250861Z" fill="#D85C7B" fill-opacity="0.47"/>
<path d="M2.14388 7.96484L2.20513 8.8976L2.27453 9.32069C2.33229 9.67278 2.60908 9.9483 2.96144 10.0044L3.4302 10.0791L4.28775 10.1413L3.4302 10.2034L2.96722 10.2772C2.61207 10.3338 2.33403 10.6131 2.2791 10.9685L2.20513 11.4471L2.14388 12.3177L2.08262 11.4471L2.00773 10.9625C1.95325 10.61 1.67913 10.332 1.32739 10.2725L0.918804 10.2034L0 10.1413L0.918804 10.0791L1.33312 10.009C1.68207 9.95005 1.95497 9.67582 2.01225 9.32658L2.08262 8.8976L2.14388 7.96484Z" fill="#DB6683"/>
</g>
</svg>
