<svg width="30" height="30" viewBox="0 0 30 30" fill="none" xmlns="http://www.w3.org/2000/svg">
<path d="M14.5049 9.22448V5.95732C14.5049 5.71171 14.6092 5.47616 14.7948 5.30249C14.9805 5.12882 15.2323 5.03125 15.4948 5.03125" fill="#F2C7D2"/>
<path d="M14.5049 9.22448V5.95732C14.5049 5.71171 14.6092 5.47616 14.7948 5.30249C14.9805 5.12882 15.2323 5.03125 15.4948 5.03125" stroke="#F2C7D2" stroke-width="2" stroke-linecap="round" stroke-linejoin="round"/>
<path d="M21.1742 24.0416C23.5888 21.487 24.9147 18.1909 24.8993 14.7809C24.8992 13.7083 24.5674 12.6586 23.9437 11.7586C23.32 10.8585 22.4311 10.1466 21.3844 9.70871C20.3378 9.27083 19.178 9.12572 18.045 9.29088C16.9121 9.45605 15.8546 9.92444 14.9999 10.6395C14.1453 9.92444 13.0877 9.45605 11.9548 9.29088C10.8219 9.12572 9.66213 9.27083 8.61544 9.70871C7.56875 10.1466 6.67991 10.8585 6.05622 11.7586C5.43253 12.6586 5.10063 13.7083 5.10061 14.7809C5.09436 18.1893 6.41906 21.4825 8.82573 24.0416C9.26893 24.5054 9.86572 24.8166 10.5205 24.9254C11.1753 25.0343 11.8502 24.9343 12.437 24.6416C13.2257 24.248 14.106 24.042 14.9999 24.042C15.8939 24.042 16.7741 24.248 17.5629 24.6416C18.1497 24.9343 18.8246 25.0343 19.4794 24.9254C20.1342 24.8166 20.731 24.5054 21.1742 24.0416Z" stroke="#F2C7D2" stroke-width="2" stroke-linecap="round" stroke-linejoin="round"/>
</svg>
