<svg width="30" height="30" viewBox="0 0 30 30" fill="none" xmlns="http://www.w3.org/2000/svg">
<path fill-rule="evenodd" clip-rule="evenodd" d="M19 12C19 13.0609 18.5786 14.0783 17.8284 14.8284C17.0783 15.5786 16.0609 16 15 16C13.9391 16 12.9217 15.5786 12.1716 14.8284C11.4214 14.0783 11 13.0609 11 12C11 10.9391 11.4214 9.92172 12.1716 9.17157C12.9217 8.42143 13.9391 8 15 8C16.0609 8 17.0783 8.42143 17.8284 9.17157C18.5786 9.92172 19 10.9391 19 12ZM17 12C17 12.5304 16.7893 13.0391 16.4142 13.4142C16.0391 13.7893 15.5304 14 15 14C14.4696 14 13.9609 13.7893 13.5858 13.4142C13.2107 13.0391 13 12.5304 13 12C13 11.4696 13.2107 10.9609 13.5858 10.5858C13.9609 10.2107 14.4696 10 15 10C15.5304 10 16.0391 10.2107 16.4142 10.5858C16.7893 10.9609 17 11.4696 17 12Z" fill="#F2C7D2"/>
<path fill-rule="evenodd" clip-rule="evenodd" d="M15 4C8.925 4 4 8.925 4 15C4 21.075 8.925 26 15 26C21.075 26 26 21.075 26 15C26 8.925 21.075 4 15 4ZM6 15C6 17.09 6.713 19.014 7.908 20.542C8.74744 19.4401 9.83015 18.5471 11.0716 17.9327C12.3131 17.3183 13.6798 16.9991 15.065 17C16.4324 16.9984 17.7821 17.3091 19.0111 17.9084C20.2402 18.5077 21.3162 19.3797 22.157 20.458C23.0234 19.3216 23.6068 17.9952 23.8589 16.5886C24.111 15.182 24.0244 13.7355 23.6065 12.369C23.1886 11.0024 22.4512 9.75505 21.4555 8.73004C20.4598 7.70503 19.2343 6.93186 17.8804 6.47451C16.5265 6.01716 15.0832 5.88877 13.6699 6.09997C12.2565 6.31117 10.9138 6.85589 9.75277 7.68905C8.59175 8.52222 7.64581 9.61987 6.99323 10.8912C6.34065 12.1625 6.00018 13.571 6 15ZM15 24C12.9339 24.0033 10.9301 23.2926 9.328 21.988C9.97281 21.0646 10.8312 20.3107 11.8301 19.7905C12.829 19.2702 13.9388 18.999 15.065 19C16.1772 18.999 17.2735 19.2635 18.263 19.7713C19.2524 20.2792 20.1064 21.0158 20.754 21.92C19.1395 23.267 17.1026 24.0033 15 24Z" fill="#F2C7D2"/>
</svg>
